<?xml version="1.0" encoding="iso-8859-1"?>
<!-- Generator: Adobe Illustrator 18.1.1, SVG Export Plug-In . SVG Version: 6.00 Build 0)  -->
<svg xmlns="http://www.w3.org/2000/svg" xmlns:xlink="http://www.w3.org/1999/xlink" version="1.1" id="Capa_1" x="0px" y="0px" viewBox="0 0 32 32" style="enable-background:new 0 0 32 32;" xml:space="preserve" width="512px" height="512px">
<g>
	<g id="settings">
		<path d="M30.391,12.679l-3.064-0.614c-0.154-0.443-0.336-0.873-0.537-1.289l1.736-2.604    c0.529-0.793,0.424-1.85-0.25-2.523l-1.924-1.924c-0.387-0.387-0.898-0.586-1.416-0.586c-0.383,0-0.77,0.11-1.107,0.336    L21.225,5.21c-0.418-0.202-0.848-0.382-1.291-0.536L19.32,1.609c-0.186-0.936-1.008-1.608-1.961-1.608h-2.72    c-0.953,0-1.774,0.673-1.961,1.608l-0.614,3.065c-0.443,0.154-0.873,0.335-1.289,0.536L8.172,3.475    C7.833,3.249,7.447,3.139,7.063,3.139c-0.517,0-1.028,0.199-1.415,0.586L3.725,5.649c-0.674,0.674-0.779,1.73-0.25,2.523    l1.735,2.604c-0.202,0.417-0.382,0.847-0.536,1.29l-3.066,0.613C0.673,12.865,0,13.686,0,14.639v2.72    c0,0.953,0.673,1.775,1.608,1.961l3.065,0.615c0.154,0.443,0.335,0.873,0.536,1.289l-1.734,2.604    c-0.529,0.793-0.424,1.85,0.25,2.523l1.924,1.924c0.387,0.387,0.898,0.586,1.415,0.586c0.384,0,0.771-0.111,1.108-0.336    l2.604-1.736c0.417,0.203,0.847,0.383,1.29,0.537l0.613,3.064C12.866,31.327,13.687,32,14.64,32h2.72    c0.953,0,1.775-0.674,1.961-1.609l0.615-3.064c0.443-0.154,0.873-0.336,1.289-0.537l2.604,1.736    c0.338,0.225,0.725,0.336,1.107,0.336c0.518,0,1.029-0.199,1.416-0.586l1.924-1.924c0.674-0.674,0.779-1.73,0.25-2.523    l-1.736-2.604c0.203-0.418,0.383-0.848,0.537-1.291l3.064-0.613C31.326,19.135,32,18.312,32,17.36v-2.72    C32,13.686,31.326,12.865,30.391,12.679z M26.934,17.974c-0.695,0.139-1.264,0.635-1.496,1.305    c-0.129,0.369-0.279,0.727-0.447,1.074c-0.311,0.639-0.258,1.393,0.135,1.982l1.736,2.604l-1.924,1.924l-2.604-1.736    c-0.334-0.223-0.721-0.336-1.109-0.336c-0.297,0-0.596,0.066-0.871,0.199c-0.348,0.168-0.705,0.32-1.076,0.449    c-0.668,0.232-1.164,0.801-1.303,1.496L17.36,30h-2.72l-0.613-3.066c-0.139-0.695-0.635-1.264-1.304-1.496    c-0.369-0.129-0.728-0.279-1.075-0.447c-0.276-0.135-0.574-0.201-0.872-0.201c-0.389,0-0.775,0.113-1.109,0.336l-2.604,1.736    l-1.924-1.924l1.735-2.604c0.393-0.59,0.444-1.344,0.137-1.98c-0.168-0.348-0.319-0.705-0.448-1.076    c-0.232-0.668-0.802-1.164-1.496-1.303l-3.065-0.615L2,14.639l3.066-0.613c0.694-0.139,1.264-0.635,1.496-1.304    c0.129-0.369,0.278-0.728,0.447-1.075c0.31-0.638,0.258-1.392-0.136-1.981L5.139,7.063l1.923-1.924l2.604,1.735    C10,7.097,10.387,7.21,10.775,7.21c0.297,0,0.595-0.066,0.871-0.199c0.347-0.168,0.705-0.319,1.075-0.448    c0.669-0.232,1.165-0.802,1.304-1.496l0.614-3.065l2.72-0.001l0.613,3.066c0.139,0.694,0.635,1.264,1.305,1.496    c0.369,0.129,0.727,0.278,1.074,0.447c0.277,0.134,0.574,0.2,0.873,0.2c0.389,0,0.775-0.113,1.109-0.336l2.604-1.735l1.924,1.924    l-1.736,2.604c-0.393,0.59-0.443,1.343-0.137,1.98c0.168,0.347,0.32,0.705,0.449,1.075c0.232,0.669,0.801,1.165,1.496,1.304    l3.064,0.614L30,17.36L26.934,17.974z" fill="#FFFFFF"/>
		<path d="M16,9c-3.865,0-7,3.135-7,7c0,3.866,3.135,7,7,7s7-3.135,7-7S19.865,9,16,9z M16,22.126    c-3.382,0-6.125-2.744-6.125-6.125c0-3.382,2.743-6.125,6.125-6.125c3.381,0,6.125,2.743,6.125,6.125    C22.125,19.382,19.381,22.126,16,22.126z" fill="#FFFFFF"/>
		<path d="M16,12c-2.21,0-4,1.79-4,4c0,2.209,1.79,4,4,4c2.209,0,4-1.791,4-4S18.209,12,16,12z M16,19.001    c-1.656,0-3-1.344-3-3s1.344-3,3-3s3,1.344,3,3S17.656,19.001,16,19.001z" fill="#FFFFFF"/>
	</g>
</g>
<g>
</g>
<g>
</g>
<g>
</g>
<g>
</g>
<g>
</g>
<g>
</g>
<g>
</g>
<g>
</g>
<g>
</g>
<g>
</g>
<g>
</g>
<g>
</g>
<g>
</g>
<g>
</g>
<g>
</g>
</svg>
